<?xml version="1.0" encoding="UTF-8" standalone="no"?> <svg xmlns="http://www.w3.org/2000/svg" viewBox="0 0 64 64"><title>email</title><g id="email"><path d="M57,26H45.69A21.092,21.092,0,0,0,47,18.71V9a1,1,0,0,0-.61-.92l-14-6a.963.963,0,0,0-.78,0l-14,6A1,1,0,0,0,17,9v9.71A21.092,21.092,0,0,0,18.31,26H7a5,5,0,0,0-5,5V57a5,5,0,0,0,5,5H57a5,5,0,0,0,5-5V31A5,5,0,0,0,57,26ZM19,9.66,32,4.09,45,9.66v9.05a19.023,19.023,0,0,1-7.96,15.46L32,37.77l-5.04-3.6A19.023,19.023,0,0,1,19,18.71ZM7,60a3.009,3.009,0,0,1-3-3V34.64L25.05,45.53,10.59,60Zm6.41,0L26.92,46.5l4.62,2.39a1.017,1.017,0,0,0,.92,0l4.62-2.39L50.59,60ZM60,57a3.009,3.009,0,0,1-3,3H53.41L38.95,45.53,60,34.64Zm0-24.61L32,46.87,4,32.39V31a3.009,3.009,0,0,1,3-3H19.18a21.034,21.034,0,0,0,6.61,7.8l5.63,4.01a.98.98,0,0,0,1.16,0l5.63-4.01A21.034,21.034,0,0,0,44.82,28H57a3.009,3.009,0,0,1,3,3Z"/><path d="M30,24a1,1,0,0,0,.743-.331l9-10-1.486-1.338-8.449,9.388-4.293-2.576-1.03,1.714,5,3A.992.992,0,0,0,30,24Z"/><path d="M55,24h2V17a1,1,0,0,0-1-1H49v2h6Z"/><path d="M9,18h6V16H8a1,1,0,0,0-1,1v7H9Z"/></g></svg>