<?xml version="1.0" encoding="UTF-8" standalone="no"?> <svg xmlns="http://www.w3.org/2000/svg" viewBox="0 0 512 512"><title>Rate_of_return</title><g id="Rate_of_return"><path d="M81.32,215l-9.95-2.16q-1.19,4.93-2.14,9.94l9.93,2.16Q80.12,219.92,81.32,215Z"/><path d="M87,196.25l-9.66-3.2c-1.16,3.18-2.22,6.4-3.21,9.65l9.66,3.21C84.8,202.65,85.87,199.42,87,196.25Z"/><path d="M94.72,178.21,85.46,174q-2.23,4.56-4.23,9.25l9.26,4.22Q92.47,182.78,94.72,178.21Z"/><path d="M104.29,161.12l-8.76-5.18q-2.72,4.29-5.18,8.74l8.74,5.18Q101.57,165.42,104.29,161.12Z"/><path d="M115.62,145.14l-8.15-6.08q-3.15,4-6.1,8.14l8.15,6.08C111.49,150.51,113.51,147.8,115.62,145.14Z"/><path d="M128.58,130.44l-7.45-6.91q-3.55,3.63-6.93,7.46l7.46,6.92C123.89,135.35,126.21,132.86,128.58,130.44Z"/><path d="M143,117.2A183.22,183.22,0,0,1,354.66,102l5.27-8.69a193.35,193.35,0,0,0-223.58,16.23q-3.93,3.24-7.67,6.69l6.67,7.67Q139.09,120.44,143,117.2Z"/><path d="M450.48,226.28A193.24,193.24,0,0,0,396.43,122l-7.18,7.18a183.36,183.36,0,0,1,50.91,97.1Z"/><path d="M420.5,232.56c-12.62-77.45-80-136.76-161-136.76C169.62,95.8,96.46,169,96.46,258.88a162.53,162.53,0,0,0,44,111.33H107.58V342.77L10,399.12l97.58,56.34V428H398A99,99,0,0,0,420.5,232.56ZM439.19,329A41.26,41.26,0,0,1,398,370.21H378.61a162.9,162.9,0,0,0,40.31-76.69A41.22,41.22,0,0,1,439.19,329ZM97.58,418v20.11L30,399.12l67.58-39v20.12h53.1A162.74,162.74,0,0,0,223.83,418Zm68.71-37.82a153.59,153.59,0,0,1-59.83-121.33c0-84.41,68.67-153.08,153.08-153.08,74.79,0,137.23,53.91,150.48,124.92.64,3.39,1.16,6.83,1.56,10.3a154,154,0,0,1-.35,38.51q-.68,5-1.68,9.92a153,153,0,0,1-243.26,90.76ZM398,418H295.25a162.74,162.74,0,0,0,73.15-37.82H398a51.2,51.2,0,0,0,22.83-97,163.59,163.59,0,0,0,1.81-24.29q0-7.92-.75-15.64A89,89,0,0,1,398,418Z"/><path d="M388.93,287.79q1.1-4.94,1.82-10a133,133,0,0,0,0-37.81q-.72-5.07-1.83-10c-13.22-59.24-66.21-103.66-129.38-103.66C186.45,126.32,127,185.79,127,258.89a132,132,0,0,0,8.36,46.43l9.37-3.5a122.58,122.58,0,1,1,234-71.84c.79,3.28,1.46,6.62,2,10a124,124,0,0,1,0,37.81c-.53,3.38-1.19,6.72-2,10a123.08,123.08,0,0,1-67.88,82.42,121.13,121.13,0,0,1-33.79,10,122.2,122.2,0,0,1-102.08-32.67l-6.9,7.23a133,133,0,0,0,19.52,15.44,130.09,130.09,0,0,0,18.5,10,132.71,132.71,0,0,0,182.9-92.42Z"/><path d="M254.53,169.76v27.75c-.55.08-1.11.17-1.65.28-16.71,3.25-28.13,19-26.56,36.68,1.52,17,13.29,23.78,31.8,29.21,17.51,5.14,24.45,11.52,24.77,22.77.29,10.69-6.33,20.19-16.1,23.09a26.74,26.74,0,0,1-4.15.89,20.84,20.84,0,0,1-16.6-5.18,22.53,22.53,0,0,1-7.65-16.92h-10a32.53,32.53,0,0,0,11,24.42,31.45,31.45,0,0,0,15.1,7.34V348h10V320.25a35.37,35.37,0,0,0,5.11-1.12c14.11-4.2,23.67-17.75,23.24-33-.3-10.66-4.2-23.94-31.95-32.08-19.81-5.82-23.84-11.47-24.64-20.5-1.12-12.55,6.83-23.72,18.49-26,.58-.12,1.17-.21,1.75-.28a20.81,20.81,0,0,1,16.52,5.23,22.54,22.54,0,0,1,7.59,16.93v1l10,0v-1a32.56,32.56,0,0,0-10.95-24.43,31.3,31.3,0,0,0-15.16-7.4V169.76Z"/></g></svg>