<?xml version="1.0" encoding="UTF-8" standalone="no"?> <svg xmlns="http://www.w3.org/2000/svg" viewBox="0 0 520 520"><title>T-Shirt</title><g id="T-Shirt"><path d="M177.85,217.83a3.45,3.45,0,0,1-3.45-3.42L174,175.05a3.45,3.45,0,0,1,3.41-3.49l39.36-.43a3.35,3.35,0,0,1,2.45,1,3.44,3.44,0,0,1,1,2.43l.43,39.36a3.44,3.44,0,0,1-3.41,3.49l-39.36.44Zm3.06-39.4.35,32.46,32.47-.36-.36-32.46Z"/><path d="M324.16,217.83a23.35,23.35,0,1,1,23.34-23.35A23.38,23.38,0,0,1,324.16,217.83Zm0-39.8a16.45,16.45,0,1,0,16.44,16.45A16.47,16.47,0,0,0,324.16,178Z"/><path d="M238,217.83a3.46,3.46,0,0,1-3-5.13L257,172.91a3.45,3.45,0,0,1,6-.11l23.43,39a3.45,3.45,0,0,1-2.9,5.22l-45.49.79Zm22.69-7.3.06,3.45-.06-3.45,16.77-.29-17.28-28.76L243.9,210.82Z"/><path d="M324.37,482.64l-1.06.1h-.09a3.41,3.41,0,0,0-3.08,3.74,3.5,3.5,0,0,0,3.48,3.14l.31,0,1.07-.1a3.45,3.45,0,0,0-.63-6.87Z"/><path d="M300.38,484.29l-1.78.08c-78.8,4.23-141.24-6.32-154.81-8.85V139.1a3.45,3.45,0,0,0-6.9,0v71.29l-7.09,8.84-76.34-64,23.45-28.26a3.45,3.45,0,0,0-5.31-4.41L46,153.43a3.45,3.45,0,0,0,.44,4.84l81.67,68.51a3.41,3.41,0,0,0,2.22.81l.34,0A3.46,3.46,0,0,0,133,226.3l3.91-4.88V478.36a3.46,3.46,0,0,0,2.74,3.38c.58.12,51,10.52,121.72,10.52,12,0,24.57-.3,37.58-1l1.75-.07a3.45,3.45,0,0,0-.3-6.9Z"/><path d="M87,112.8a3.46,3.46,0,0,0,2.66-1.24l.74-.9a3.45,3.45,0,1,0-5.31-4.4l-.74.89A3.44,3.44,0,0,0,87,112.8Z"/><path d="M474,153.43l-71-85.57a3.32,3.32,0,0,0-.9-.77L346.57,34.4h0L336,28.2a3.55,3.55,0,0,0-4.4.73C317.29,45.67,289.84,56.08,260,56.08s-57.28-10.41-71.63-27.15A3.57,3.57,0,0,0,184,28.2l-10.51,6.19h0l-55.61,32.7a3.32,3.32,0,0,0-.9.77L97.81,90.92a3.45,3.45,0,1,0,5.31,4.4l18.74-22.59,50.68-29.81c6.14,28.52,43.11,50.15,87.46,50.15s81.32-21.63,87.46-50.14l50.68,29.8,68.4,82.46-76.34,64-7.08-8.83V139.1a3.45,3.45,0,1,0-6.9,0V475.48c-9.83,1.78-19.56,3.31-29,4.57a3.45,3.45,0,0,0,.46,6.87l.46,0c10.42-1.39,21.23-3.12,32.13-5.14a3.44,3.44,0,0,0,2.82-3.39V221.43l3.9,4.87a3.46,3.46,0,0,0,2.35,1.27l.34,0a3.41,3.41,0,0,0,2.22-.81l81.67-68.51A3.45,3.45,0,0,0,474,153.43ZM260,86.17c-42.36,0-77.38-20.46-81.13-47l6.19-3.64C201.1,52.53,229.48,63,260,63S318.9,52.53,335,35.56l6.19,3.65C337.38,65.71,302.36,86.17,260,86.17Z"/></g></svg>